<svg width="1200" height="800" viewBox="0 0 1200 800" fill="none" xmlns="http://www.w3.org/2000/svg">
  <rect width="1200" height="800" fill="#0A0A0A"/>
  <g opacity="0.18" stroke="#FFFFFF" stroke-width="2">
    <line x1="90" y1="150" x2="1110" y2="150"/>
    <line x1="90" y1="280" x2="1110" y2="280"/>
    <line x1="90" y1="410" x2="1110" y2="410"/>
    <line x1="90" y1="540" x2="1110" y2="540"/>
    <line x1="90" y1="670" x2="1110" y2="670"/>
  </g>
  <g stroke="#FFFFFF" stroke-width="8" stroke-linecap="round">
    <line x1="180" y1="540" x2="180" y2="300"/>
    <line x1="300" y1="610" x2="300" y2="360"/>
    <line x1="420" y1="500" x2="420" y2="250"/>
    <line x1="540" y1="560" x2="540" y2="320"/>
    <line x1="660" y1="420" x2="660" y2="210"/>
    <line x1="780" y1="510" x2="780" y2="280"/>
    <line x1="900" y1="360" x2="900" y2="180"/>
    <line x1="1020" y1="300" x2="1020" y2="150"/>
  </g>
  <g fill="#FFFFFF">
    <rect x="150" y="360" width="60" height="140" rx="16"/>
    <rect x="270" y="410" width="60" height="170" rx="16"/>
    <rect x="390" y="300" width="60" height="150" rx="16"/>
    <rect x="510" y="380" width="60" height="120" rx="16"/>
    <rect x="630" y="250" width="60" height="120" rx="16"/>
    <rect x="750" y="330" width="60" height="150" rx="16"/>
    <rect x="870" y="210" width="60" height="110" rx="16"/>
    <rect x="990" y="180" width="60" height="90" rx="16"/>
  </g>
</svg>
