<svg width="1200" height="900" viewBox="0 0 1200 900" fill="none" xmlns="http://www.w3.org/2000/svg">
  <defs>
    <linearGradient id="bg" x1="0" y1="0" x2="1200" y2="900" gradientUnits="userSpaceOnUse">
      <stop offset="0" stop-color="#0E111A"/>
      <stop offset="0.55" stop-color="#121829"/>
      <stop offset="1" stop-color="#05070B"/>
    </linearGradient>
    <radialGradient id="halo" cx="0" cy="0" r="1" gradientUnits="userSpaceOnUse" gradientTransform="translate(810 250) rotate(140) scale(360 260)">
      <stop stop-color="#CAD3E8" stop-opacity="0.28"/>
      <stop offset="1" stop-color="#CAD3E8" stop-opacity="0"/>
    </radialGradient>
    <linearGradient id="card" x1="220" y1="170" x2="880" y2="730" gradientUnits="userSpaceOnUse">
      <stop offset="0" stop-color="#ECEFF7"/>
      <stop offset="1" stop-color="#C8CEDF"/>
    </linearGradient>
  </defs>

  <rect width="1200" height="900" rx="48" fill="url(#bg)"/>
  <rect width="1200" height="900" rx="48" fill="url(#halo)"/>

  <g opacity="0.22" stroke="#E7ECF7">
    <path d="M80 780C210 610 390 540 560 560" stroke-width="12" stroke-linecap="round"/>
    <path d="M650 535C770 530 900 560 1120 730" stroke-width="10" stroke-linecap="round"/>
  </g>

  <g transform="translate(250 130)">
    <rect x="0" y="0" width="700" height="640" rx="44" fill="url(#card)"/>
    <rect x="18" y="18" width="664" height="604" rx="34" fill="#F6F8FF"/>

    <rect x="60" y="64" width="580" height="340" rx="26" fill="#161D2F"/>

    <g transform="translate(350 234)">
      <circle r="122" fill="#F3F6FF"/>
      <path d="M-122 0H122" stroke="#0F1321" stroke-width="24" stroke-linecap="round"/>
      <circle r="38" fill="#0F1321"/>
      <circle r="18" fill="#F3F6FF"/>
      <path d="M-122 0A122 122 0 0 1 122 0" stroke="#0F1321" stroke-width="16" stroke-linecap="round"/>
      <path d="M-122 0A122 122 0 0 0 122 0" stroke="#B9C2DC" stroke-width="16" stroke-linecap="round"/>
    </g>

    <rect x="60" y="438" width="210" height="20" rx="10" fill="#CFD6E8"/>
    <rect x="60" y="474" width="450" height="16" rx="8" fill="#D8DEEC"/>
    <rect x="60" y="504" width="390" height="16" rx="8" fill="#D8DEEC"/>

    <rect x="60" y="556" width="188" height="40" rx="20" fill="#1A2238"/>
    <rect x="472" y="556" width="168" height="40" rx="20" fill="#1A2238" opacity="0.8"/>
  </g>
</svg>
